Coordinates
version=1
nRows=8
nColumns=46
inDegrees=yes

Units are S.I. units (second, meters, Newtons, ...)
Angles are in degrees.

endheader
time	pelvis_tilt	pelvis_list	pelvis_rotation	pelvis_tx	pelvis_ty	pelvis_tz	bb_angle	bb_tx	bb_ty	bb_tz	hip_flexion_r	hip_adduction_r	hip_rotation_r	knee_angle_r	knee_angle_r_beta	ankle_angle_r	subtalar_angle_r	mtp_angle_r	crank_angle_r	hip_flexion_l	hip_adduction_l	hip_rotation_l	knee_angle_l	knee_angle_l_beta	ankle_angle_l	subtalar_angle_l	mtp_angle_l	crank_angle_l	lumbar_extension	lumbar_bending	lumbar_rotation	arm_flex_r	arm_add_r	arm_rot_r	elbow_flex_r	pro_sup_r	wrist_flex_r	wrist_dev_r	arm_flex_l	arm_add_l	arm_rot_l	elbow_flex_l	pro_sup_l	wrist_flex_l	wrist_dev_l
      7.50500000	    -32.76752171	     -6.82343891	    -15.53692852	      0.45784896	      1.18856171	     -0.26232256	      0.00000000	      0.50000000	      0.00000000	      0.25000000	     80.41487904	      9.85773095	     -2.40663000	     95.18784040	      1.66134122	      4.97917301	     -5.21998572	      0.00000000	      0.00000000	     29.02059051	    -20.17614788	    -13.05587776	     30.82806753	      0.53805128	    -21.19024434	      4.19916710	      0.00000000	      0.00000000	    -67.66502419	     -1.85404169	      6.49763743	     50.98465048	    -40.12540456	     36.67158125	    111.19060308	     51.86647075	      0.00000000	      0.00000000	     13.66561133	    -25.13240339	     -3.11288867	    113.47277071	     54.77108895	      0.00000000	      0.00000000
      7.51000000	    -32.68134625	     -6.27682179	    -15.42314638	      0.45799188	      1.19121254	     -0.26088912	      0.00000000	      0.50000000	      0.00000000	      0.25000000	     79.39248237	     10.03959061	     -1.70905936	     93.07446814	      1.62445592	      6.04118931	     -5.51824415	      0.00000000	      0.00000000	     29.96024086	    -19.86883621	    -12.53880476	     33.00264364	      0.57600479	    -21.96389489	      3.51631581	      0.00000000	      0.00000000	    -68.00407885	     -2.33771394	      6.13588096	     50.94633859	    -40.19705292	     36.37295088	    111.33627072	     51.85365344	      0.00000000	      0.00000000	     14.42425696	    -25.31082174	     -3.01838971	    113.50264995	     54.77822519	      0.00000000	      0.00000000
      7.51500000	    -33.16355280	     -5.92500351	    -14.98582521	      0.45772646	      1.19288935	     -0.26006151	      0.00000000	      0.50000000	      0.00000000	      0.25000000	     78.78591686	      9.92344819	     -1.42591814	     90.68396043	      1.58273369	      6.80082925	     -6.06175738	      0.00000000	      0.00000000	     31.87825738	    -19.58018114	    -11.00876798	     35.51906314	      0.61992460	    -22.65690799	      2.38438451	      0.00000000	      0.00000000	    -67.79512377	     -2.59700389	      8.41272759	     47.19632039	    -42.66967166	     31.78172105	    113.80306914	     51.70868243	      0.00000000	      0.00000000	     18.10178074	    -24.79996905	      1.22367482	    111.52399756	     54.99228696	      0.00000000	      0.00000000
      7.52000000	    -33.33972060	     -5.37800180	    -14.70932579	      0.45805271	      1.19477100	     -0.25918286	      0.00000000	      0.50000000	      0.00000000	      0.25000000	     77.76365946	      9.83089112	     -0.90646385	     88.16582546	      1.53878394	      7.48722847	     -6.64858130	      0.00000000	      0.00000000	     33.34650246	    -19.14930493	    -10.06382937	     38.01026642	      0.66340430	    -23.18324895	      1.72169666	      0.00000000	      0.00000000	    -67.82667800	     -2.86643331	      7.94944882	     47.03877157	    -42.60764100	     31.33796470	    113.98950157	     51.68014079	      0.00000000	      0.00000000	     18.62008020	    -25.05880237	      1.41597503	    111.57598985	     55.02128143	      0.00000000	      0.00000000
      7.52500000	    -33.41199599	     -4.65376327	    -14.55030376	      0.45837815	      1.19646012	     -0.25769371	      0.00000000	      0.50000000	      0.00000000	      0.25000000	     76.62620057	      9.86824405	     -0.11889405	     85.57675157	      1.49359608	      7.89775848	     -7.32660279	      0.00000000	      0.00000000	     34.70597197	    -18.64099106	     -9.37319297	     40.60366562	      0.70866765	    -23.51643308	      1.37351426	      0.00000000	      0.00000000	    -67.90093929	     -3.42154378	      7.44031849	     46.62468966	    -42.55853440	     30.98089059	    114.00895601	     51.64284690	      0.00000000	      0.00000000	     19.22744935	    -25.37381938	      1.55722419	    111.63275341	     55.04120665	      0.00000000	      0.00000000
      7.53000000	    -33.60110232	     -4.00578935	    -14.14717965	      0.45846804	      1.19766044	     -0.25646465	      0.00000000	      0.50000000	      0.00000000	      0.25000000	     75.57461516	      9.65314777	      0.44894341	     82.87670735	      1.44647142	      7.89307431	     -8.39416418	      0.00000000	      0.00000000	     36.38226177	    -18.11621339	     -8.51477414	     43.30600777	      0.75583242	    -23.95408048	      1.05428646	      0.00000000	      0.00000000	    -67.75704307	     -3.87855359	      8.22754373	     43.80339267	    -43.50859945	     27.62601937	    115.29974611	     51.45904381	      0.00000000	      0.00000000	     21.28170075	    -25.25427371	      3.96508308	    110.61702271	     55.16501051	      0.00000000	      0.00000000
      7.53500000	    -33.71885809	     -3.31237581	    -13.69921923	      0.45878503	      1.19879504	     -0.25525461	      0.00000000	      0.50000000	      0.00000000	      0.25000000	     74.42115053	      9.32740497	      1.06204640	     80.11935177	      1.39834648	      7.58259522	     -9.31354490	      0.00000000	      0.00000000	     37.91701177	    -17.43896065	     -7.65141890	     45.83296802	      0.79993620	    -24.40764979	      0.48210404	      0.00000000	      0.00000000	    -67.66541963	     -4.19025173	      7.55955227	     43.28840975	    -43.25901261	     27.17962718	    115.31994165	     51.41025742	      0.00000000	      0.00000000	     21.74247282	    -25.70725070	      4.24711097	    110.64295443	     55.19839193	      0.00000000	      0.00000000
      7.54000000	    -33.53290715	     -2.44948039	    -13.37099532	      0.45923756	      1.20004413	     -0.25403537	      0.00000000	      0.50000000	      0.00000000	      0.25000000	     72.98990882	      8.93473994	      1.90885709	     77.41042506	      1.35106679	      7.21239729	     -9.81588997	      0.00000000	      0.00000000	     39.02132048	    -16.65049332	     -7.23272981	     48.22178298	      0.84162888	    -24.88045127	      0.07856213	      0.00000000	      0.00000000	    -67.83151290	     -4.73160548	      6.74540592	     42.84439944	    -43.10316126	     26.87754035	    115.35609222	     51.38592357	      0.00000000	      0.00000000	     22.35345084	    -26.06992211	      4.33521701	    110.66169734	     55.20259075	      0.00000000	      0.00000000
